<svg width="202" height="200" viewBox="0 0 202 200" fill="none" xmlns="http://www.w3.org/2000/svg">
<circle cx="100.5" cy="100" r="100" fill="#EBEBEB"/>
<circle cx="100.5" cy="100" r="99.5" stroke="black" stroke-opacity="0.87"/>
<path d="M44.5 106.375C56.1817 106.375 66.5017 109.17 74.8867 112.825C82.6267 116.265 87.5 124.005 87.5 132.39V142C87.5 143.105 86.6046 144 85.5 144H3.5C2.39543 144 1.5 143.105 1.5 142V132.462C1.5 124.005 6.37333 116.265 14.1133 112.897C22.4983 109.17 32.8183 106.375 44.5 106.375ZM44.5 58C56.3967 58 66 67.6033 66 79.5C66 91.3967 56.3967 101 44.5 101C32.6033 101 23 91.3967 23 79.5C23 67.6033 32.6033 58 44.5 58Z" fill="#9AF4FF"/>
<path d="M14.3129 113.355L14.3164 113.354C22.6477 109.651 32.8987 106.875 44.5 106.875C56.1004 106.875 66.3518 109.65 74.685 113.283C82.2388 116.64 87 124.198 87 132.39V142C87 142.828 86.3284 143.5 85.5 143.5H3.5C2.67157 143.5 2 142.828 2 142V132.462C2 124.196 6.76297 116.641 14.3129 113.355ZM44.5 58.5C56.1205 58.5 65.5 67.8795 65.5 79.5C65.5 91.1205 56.1205 100.5 44.5 100.5C32.8795 100.5 23.5 91.1205 23.5 79.5C23.5 67.8795 32.8795 58.5 44.5 58.5Z" stroke="black" stroke-opacity="0.87"/>
<path d="M158.5 106.375C170.182 106.375 180.502 109.17 188.887 112.825C196.627 116.265 201.5 124.005 201.5 132.39V142C201.5 143.105 200.605 144 199.5 144H117.5C116.395 144 115.5 143.105 115.5 142V132.462C115.5 124.005 120.373 116.265 128.113 112.897C136.498 109.17 146.818 106.375 158.5 106.375ZM158.5 58C170.397 58 180 67.6033 180 79.5C180 91.3967 170.397 101 158.5 101C146.603 101 137 91.3967 137 79.5C137 67.6033 146.603 58 158.5 58Z" fill="#9AF4FF"/>
<path d="M128.313 113.355L128.316 113.354C136.648 109.651 146.899 106.875 158.5 106.875C170.1 106.875 180.352 109.65 188.685 113.283C196.239 116.64 201 124.198 201 132.39V142C201 142.828 200.328 143.5 199.5 143.5H117.5C116.672 143.5 116 142.828 116 142V132.462C116 124.196 120.763 116.641 128.313 113.355ZM158.5 58.5C170.121 58.5 179.5 67.8795 179.5 79.5C179.5 91.1205 170.121 100.5 158.5 100.5C146.879 100.5 137.5 91.1205 137.5 79.5C137.5 67.8795 146.879 58.5 158.5 58.5Z" stroke="black" stroke-opacity="0.87"/>
<path d="M101.5 100.25C115.083 100.25 127.083 103.5 136.833 107.75C145.833 111.75 151.5 120.75 151.5 130.5V142C151.5 143.105 150.605 144 149.5 144H53.5C52.3954 144 51.5 143.105 51.5 142V130.583C51.5 120.75 57.1667 111.75 66.1667 107.833C75.9167 103.5 87.9167 100.25 101.5 100.25ZM101.5 44C115.333 44 126.5 55.1667 126.5 69C126.5 82.8333 115.333 94 101.5 94C87.6667 94 76.5 82.8333 76.5 69C76.5 55.1667 87.6667 44 101.5 44Z" fill="#9AF4FF"/>
<path d="M66.3662 108.292L66.3697 108.29C76.0661 103.981 87.997 100.75 101.5 100.75C115.002 100.75 126.933 103.98 136.632 108.208C145.445 112.125 151 120.943 151 130.5V142C151 142.828 150.328 143.5 149.5 143.5H53.5C52.6716 143.5 52 142.828 52 142V130.583C52 120.941 57.5563 112.126 66.3662 108.292ZM101.5 44.5C115.057 44.5 126 55.4428 126 69C126 82.5572 115.057 93.5 101.5 93.5C87.9428 93.5 77 82.5572 77 69C77 55.4428 87.9428 44.5 101.5 44.5Z" stroke="black" stroke-opacity="0.87"/>
</svg>
